<svg xmlns="http://www.w3.org/2000/svg" xmlns:svg="http://www.w3.org/2000/svg" id="svg2" width="2400" height="2304" version="1.1"><metadata id="metadata12"/><g id="imagebot_1"><title id="title5">Layer 1</title><path style="fill:#000" id="path4140" d="M 336.01871,1345.9118 C 151.58734,818.96333 0.49867228,386.82831 0.26612228,385.61179 c -0.39016,-2.04097 3.69719002,-4.04295 52.90552972,-25.91308 29.33059,-13.03568 53.815188,-23.70066 54.410218,-23.69997 0.96168,10e-4 743.15307,1889.51856 744.15847,1894.52526 0.3662,1.8236 -8.4385,5.5616 -88.91939,37.75 -49.12919,19.6493 -89.80881,35.726 -90.39914,35.726 -0.59033,0 -151.97172,-431.1397 -336.4031,-958.0882 z M 479.50938,1092.3805 C 257.96814,529.293 191.89301,360.38549 192.66841,359.13055 194.10774,356.8011 221.6079,333.15768 241,317.57719 436.81575,160.24995 682.93467,68.097249 959.50004,48.553919 c 45.23886,-3.19678 72.80616,-3.83212 134.99996,-3.11128 33.55,0.38884 65.7142,1.01082 71.4761,1.38218 l 10.476,0.67518 237.4405,534.250111 c 130.5923,293.83752 237.5874,534.10329 237.7668,533.92379 0.1795,-0.1795 -52.5812,-196.04197 -117.2459,-435.25007 C 1469.7487,441.21571 1416.609,244.13574 1416.3252,242.46832 l -0.516,-3.03168 17.3454,-3.78686 c 23.4212,-5.11333 81.8996,-19.49383 104.6962,-25.74598 165.4811,-45.38453 283.651,-104.27268 384.9332,-191.825521 7.5438,-6.52121 15.0377,-13.2565904 16.6531,-14.9675104 1.6154,-1.71092 3.4529,-3.1107699693067 4.0834,-3.1107699693067 1.0301,0 455.1917,1145.4257013693068 456.2503,1150.6934013693069 0.5225,2.6003 -3.1355,9.3046 -13.8076,25.3066 -102.2638,153.3369 -401.9154,336.4283 -654.4632,399.8864 -93.5851,23.5153 -179.3483,30.178 -245,19.0333 -61.1827,-10.386 -108.5139,-35.5095 -139.8339,-74.224 -11.5414,-14.2663 -26.6661,-39.457 -26.6661,-44.4134 0,-2.6349 23.5806,-25.5849 43.0722,-41.9203 64.7325,-54.2507 147.9934,-100.2232 201.4431,-111.2268 21.6123,-4.4493 37.2773,-3.8343 49.173,1.9304 11.3433,5.4972 16.4014,14.4909 17.0993,30.404 1.349,30.7594 -16.3489,73.3974 -58.8851,141.8667 l -6.9354,11.1637 5.7665,-6.1213 c 63.0542,-66.9349 102.4232,-119.2542 126.3248,-167.8787 18.9414,-38.5338 23.5295,-66.1308 14.1758,-85.2657 -2.888,-5.9079 -10.8774,-13.9941 -16.8076,-17.0112 -11.6097,-5.9067 -28.7304,-8.3664 -49.1951,-7.0676 -86.998,5.5211 -257.5107,85.8797 -435.7315,205.3499 -179.4036,120.2631 -335.74396,258.38 -430.41521,380.2446 -5.66134,7.2875 -10.61591,13.25 -11.01015,13.25 -0.39424,0 -130.24861,-329.2288 -288.56526,-731.6195 z"/></g></svg>